<?xml version="1.0" encoding="UTF-8" standalone="no"?>
<svg
   xmlns:dc="http://purl.org/dc/elements/1.1/"
   xmlns:cc="http://creativecommons.org/ns#"
   xmlns:rdf="http://www.w3.org/1999/02/22-rdf-syntax-ns#"
   xmlns:svg="http://www.w3.org/2000/svg"
   xmlns="http://www.w3.org/2000/svg"
   xmlns:sodipodi="http://sodipodi.sourceforge.net/DTD/sodipodi-0.dtd"
   xmlns:inkscape="http://www.inkscape.org/namespaces/inkscape"
   width="150"
   height="150"
   viewBox="0 0 39.6875 39.6875"
   version="1.1"
   id="svg8"
   inkscape:version="1.0.1 (3bc2e813f5, 2020-09-07)"
   sodipodi:docname="filter_sem.svg">
  <defs
     id="defs2">
    <inkscape:path-effect
       effect="powerstroke"
       id="path-effect1080"
       is_visible="true"
       lpeversion="1"
       offset_points="2,0.5"
       sort_points="true"
       interpolator_type="CentripetalCatmullRom"
       interpolator_beta="0.75"
       start_linecap_type="peak"
       linejoin_type="spiro"
       miter_limit="4"
       scale_width="1"
       end_linecap_type="peak" />
    <inkscape:path-effect
       effect="simplify"
       id="path-effect1078"
       is_visible="true"
       lpeversion="1"
       steps="1"
       threshold="0.0032025118"
       smooth_angles="0"
       helper_size="0"
       simplify_individual_paths="false"
       simplify_just_coalesce="false"
       step="1" />
    <inkscape:path-effect
       effect="powerstroke"
       id="path-effect1073"
       is_visible="true"
       lpeversion="1"
       offset_points="0.5855823,0.79729353"
       sort_points="true"
       interpolator_type="CentripetalCatmullRom"
       interpolator_beta="0.75"
       start_linecap_type="peak"
       linejoin_type="spiro"
       miter_limit="4"
       scale_width="1"
       end_linecap_type="peak" />
    <inkscape:path-effect
       effect="simplify"
       id="path-effect1071"
       is_visible="true"
       lpeversion="1"
       steps="1"
       threshold="0.0032025118"
       smooth_angles="0"
       helper_size="0"
       simplify_individual_paths="false"
       simplify_just_coalesce="false"
       step="1" />
    <inkscape:path-effect
       effect="powerstroke"
       id="path-effect1066"
       is_visible="true"
       lpeversion="1"
       offset_points="1.9242895,0.79729353"
       sort_points="true"
       interpolator_type="CentripetalCatmullRom"
       interpolator_beta="0.75"
       start_linecap_type="peak"
       linejoin_type="spiro"
       miter_limit="4"
       scale_width="1"
       end_linecap_type="peak" />
    <inkscape:path-effect
       effect="simplify"
       id="path-effect1064"
       is_visible="true"
       lpeversion="1"
       steps="1"
       threshold="0.0032025118"
       smooth_angles="0"
       helper_size="0"
       simplify_individual_paths="false"
       simplify_just_coalesce="false"
       step="1" />
    <inkscape:path-effect
       effect="powerstroke"
       id="path-effect1059"
       is_visible="true"
       lpeversion="1"
       offset_points="3.5508492,0.79729353"
       sort_points="true"
       interpolator_type="CentripetalCatmullRom"
       interpolator_beta="0.75"
       start_linecap_type="peak"
       linejoin_type="spiro"
       miter_limit="4"
       scale_width="1"
       end_linecap_type="peak" />
    <inkscape:path-effect
       effect="simplify"
       id="path-effect1057"
       is_visible="true"
       lpeversion="1"
       steps="1"
       threshold="0.0032025118"
       smooth_angles="0"
       helper_size="0"
       simplify_individual_paths="false"
       simplify_just_coalesce="false"
       step="1" />
    <inkscape:path-effect
       effect="powerstroke"
       id="path-effect1052"
       is_visible="true"
       lpeversion="1"
       offset_points="0.5847214,0.79729353"
       sort_points="true"
       interpolator_type="CentripetalCatmullRom"
       interpolator_beta="0.75"
       start_linecap_type="peak"
       linejoin_type="spiro"
       miter_limit="4"
       scale_width="1"
       end_linecap_type="peak" />
    <inkscape:path-effect
       effect="simplify"
       id="path-effect1050"
       is_visible="true"
       lpeversion="1"
       steps="1"
       threshold="0.0032025118"
       smooth_angles="0"
       helper_size="0"
       simplify_individual_paths="false"
       simplify_just_coalesce="false"
       step="1" />
    <inkscape:path-effect
       effect="powerstroke"
       id="path-effect1045"
       is_visible="true"
       lpeversion="1"
       offset_points="1.5586326,0.79729353"
       sort_points="true"
       interpolator_type="CentripetalCatmullRom"
       interpolator_beta="0.75"
       start_linecap_type="peak"
       linejoin_type="spiro"
       miter_limit="4"
       scale_width="1"
       end_linecap_type="peak" />
    <inkscape:path-effect
       effect="simplify"
       id="path-effect1043"
       is_visible="true"
       lpeversion="1"
       steps="1"
       threshold="0.0032025118"
       smooth_angles="0"
       helper_size="0"
       simplify_individual_paths="false"
       simplify_just_coalesce="false"
       step="1" />
    <inkscape:path-effect
       effect="powerstroke"
       id="path-effect1038"
       is_visible="true"
       lpeversion="1"
       offset_points="2.072949,0.79729353"
       sort_points="true"
       interpolator_type="CentripetalCatmullRom"
       interpolator_beta="0.75"
       start_linecap_type="peak"
       linejoin_type="spiro"
       miter_limit="4"
       scale_width="1"
       end_linecap_type="peak" />
    <inkscape:path-effect
       effect="simplify"
       id="path-effect1036"
       is_visible="true"
       lpeversion="1"
       steps="1"
       threshold="0.0032025118"
       smooth_angles="0"
       helper_size="0"
       simplify_individual_paths="false"
       simplify_just_coalesce="false"
       step="1" />
    <inkscape:path-effect
       effect="powerstroke"
       id="path-effect1031"
       is_visible="true"
       lpeversion="1"
       offset_points="1.7323389,0.79729353"
       sort_points="true"
       interpolator_type="CentripetalCatmullRom"
       interpolator_beta="0.75"
       start_linecap_type="peak"
       linejoin_type="spiro"
       miter_limit="4"
       scale_width="1"
       end_linecap_type="peak" />
    <inkscape:path-effect
       effect="simplify"
       id="path-effect1029"
       is_visible="true"
       lpeversion="1"
       steps="1"
       threshold="0.0032025118"
       smooth_angles="0"
       helper_size="0"
       simplify_individual_paths="false"
       simplify_just_coalesce="false"
       step="1" />
    <inkscape:path-effect
       effect="powerstroke"
       id="path-effect1024"
       is_visible="true"
       lpeversion="1"
       offset_points="1.3245553,0.79729353"
       sort_points="true"
       interpolator_type="CentripetalCatmullRom"
       interpolator_beta="0.75"
       start_linecap_type="peak"
       linejoin_type="spiro"
       miter_limit="4"
       scale_width="1"
       end_linecap_type="peak" />
    <inkscape:path-effect
       effect="simplify"
       id="path-effect1022"
       is_visible="true"
       lpeversion="1"
       steps="1"
       threshold="0.0032025118"
       smooth_angles="0"
       helper_size="0"
       simplify_individual_paths="false"
       simplify_just_coalesce="false"
       step="1" />
    <inkscape:path-effect
       effect="powerstroke"
       id="path-effect1017"
       is_visible="true"
       lpeversion="1"
       offset_points="0.74040804,0.79729353"
       sort_points="true"
       interpolator_type="CentripetalCatmullRom"
       interpolator_beta="0.75"
       start_linecap_type="peak"
       linejoin_type="spiro"
       miter_limit="4"
       scale_width="1"
       end_linecap_type="peak" />
    <inkscape:path-effect
       effect="simplify"
       id="path-effect1015"
       is_visible="true"
       lpeversion="1"
       steps="1"
       threshold="0.0032025118"
       smooth_angles="0"
       helper_size="0"
       simplify_individual_paths="false"
       simplify_just_coalesce="false"
       step="1" />
    <inkscape:path-effect
       effect="powerstroke"
       id="path-effect1006"
       is_visible="true"
       lpeversion="1"
       offset_points="1.8377223,0.79729353"
       sort_points="true"
       interpolator_type="CentripetalCatmullRom"
       interpolator_beta="0.75"
       start_linecap_type="peak"
       linejoin_type="spiro"
       miter_limit="4"
       scale_width="1"
       end_linecap_type="peak" />
    <inkscape:path-effect
       effect="simplify"
       id="path-effect1004"
       is_visible="true"
       lpeversion="1"
       steps="1"
       threshold="0.0032025118"
       smooth_angles="0"
       helper_size="0"
       simplify_individual_paths="false"
       simplify_just_coalesce="false"
       step="1" />
    <inkscape:path-effect
       effect="powerstroke"
       id="path-effect999"
       is_visible="true"
       lpeversion="1"
       offset_points="4.3395247,0.79729353"
       sort_points="true"
       interpolator_type="CentripetalCatmullRom"
       interpolator_beta="0.75"
       start_linecap_type="peak"
       linejoin_type="spiro"
       miter_limit="4"
       scale_width="1"
       end_linecap_type="peak" />
    <inkscape:path-effect
       effect="simplify"
       id="path-effect997"
       is_visible="true"
       lpeversion="1"
       steps="1"
       threshold="0.0032025118"
       smooth_angles="0"
       helper_size="0"
       simplify_individual_paths="false"
       simplify_just_coalesce="false"
       step="1" />
    <inkscape:path-effect
       effect="powerstroke"
       id="path-effect992"
       is_visible="true"
       lpeversion="1"
       offset_points="0.89386829,0.79729353"
       sort_points="true"
       interpolator_type="CentripetalCatmullRom"
       interpolator_beta="0.75"
       start_linecap_type="peak"
       linejoin_type="spiro"
       miter_limit="4"
       scale_width="1"
       end_linecap_type="peak" />
    <inkscape:path-effect
       effect="simplify"
       id="path-effect990"
       is_visible="true"
       lpeversion="1"
       steps="1"
       threshold="0.0032025118"
       smooth_angles="0"
       helper_size="0"
       simplify_individual_paths="false"
       simplify_just_coalesce="false"
       step="1" />
    <inkscape:path-effect
       effect="powerstroke"
       id="path-effect985"
       is_visible="true"
       lpeversion="1"
       offset_points="0.62708015,0.79729353"
       sort_points="true"
       interpolator_type="CentripetalCatmullRom"
       interpolator_beta="0.75"
       start_linecap_type="peak"
       linejoin_type="spiro"
       miter_limit="4"
       scale_width="1"
       end_linecap_type="peak" />
    <inkscape:path-effect
       effect="simplify"
       id="path-effect983"
       is_visible="true"
       lpeversion="1"
       steps="1"
       threshold="0.0032025118"
       smooth_angles="0"
       helper_size="0"
       simplify_individual_paths="false"
       simplify_just_coalesce="false"
       step="1" />
    <inkscape:path-effect
       effect="powerstroke"
       id="path-effect972"
       is_visible="true"
       lpeversion="1"
       offset_points="0.8555808,0.79729353"
       sort_points="true"
       interpolator_type="CentripetalCatmullRom"
       interpolator_beta="0.75"
       start_linecap_type="peak"
       linejoin_type="spiro"
       miter_limit="4"
       scale_width="1"
       end_linecap_type="peak" />
    <inkscape:path-effect
       effect="simplify"
       id="path-effect970"
       is_visible="true"
       lpeversion="1"
       steps="1"
       threshold="0.0032025118"
       smooth_angles="0"
       helper_size="0"
       simplify_individual_paths="false"
       simplify_just_coalesce="false"
       step="1" />
    <inkscape:path-effect
       effect="powerstroke"
       id="path-effect965"
       is_visible="true"
       lpeversion="1"
       offset_points="1.1139594,0.79729353"
       sort_points="true"
       interpolator_type="CentripetalCatmullRom"
       interpolator_beta="0.75"
       start_linecap_type="peak"
       linejoin_type="spiro"
       miter_limit="4"
       scale_width="1"
       end_linecap_type="peak" />
    <inkscape:path-effect
       effect="simplify"
       id="path-effect963"
       is_visible="true"
       lpeversion="1"
       steps="1"
       threshold="0.0032025118"
       smooth_angles="0"
       helper_size="0"
       simplify_individual_paths="false"
       simplify_just_coalesce="false"
       step="1" />
    <inkscape:path-effect
       effect="powerstroke"
       id="path-effect958"
       is_visible="true"
       lpeversion="1"
       offset_points="0.78524886,0.79729353"
       sort_points="true"
       interpolator_type="CentripetalCatmullRom"
       interpolator_beta="0.75"
       start_linecap_type="peak"
       linejoin_type="spiro"
       miter_limit="4"
       scale_width="1"
       end_linecap_type="peak" />
    <inkscape:path-effect
       effect="simplify"
       id="path-effect956"
       is_visible="true"
       lpeversion="1"
       steps="1"
       threshold="0.0032025118"
       smooth_angles="0"
       helper_size="0"
       simplify_individual_paths="false"
       simplify_just_coalesce="false"
       step="1" />
    <inkscape:path-effect
       effect="powerstroke"
       id="path-effect951"
       is_visible="true"
       lpeversion="1"
       offset_points="1.3306762,0.79729353"
       sort_points="true"
       interpolator_type="CentripetalCatmullRom"
       interpolator_beta="0.75"
       start_linecap_type="peak"
       linejoin_type="spiro"
       miter_limit="4"
       scale_width="1"
       end_linecap_type="peak" />
    <inkscape:path-effect
       effect="simplify"
       id="path-effect949"
       is_visible="true"
       lpeversion="1"
       steps="1"
       threshold="0.0032025118"
       smooth_angles="0"
       helper_size="0"
       simplify_individual_paths="false"
       simplify_just_coalesce="false"
       step="1" />
    <inkscape:path-effect
       effect="powerstroke"
       id="path-effect944"
       is_visible="true"
       lpeversion="1"
       offset_points="1,0.5"
       sort_points="true"
       interpolator_type="CentripetalCatmullRom"
       interpolator_beta="0.75"
       start_linecap_type="peak"
       linejoin_type="spiro"
       miter_limit="4"
       scale_width="1"
       end_linecap_type="peak" />
    <inkscape:path-effect
       effect="simplify"
       id="path-effect942"
       is_visible="true"
       lpeversion="1"
       steps="1"
       threshold="0.0032025118"
       smooth_angles="0"
       helper_size="0"
       simplify_individual_paths="false"
       simplify_just_coalesce="false"
       step="1" />
    <inkscape:path-effect
       effect="powerstroke"
       id="path-effect937"
       is_visible="true"
       lpeversion="1"
       offset_points="0.74974146,0.79729353"
       sort_points="true"
       interpolator_type="CentripetalCatmullRom"
       interpolator_beta="0.75"
       start_linecap_type="peak"
       linejoin_type="spiro"
       miter_limit="4"
       scale_width="1"
       end_linecap_type="peak" />
    <inkscape:path-effect
       effect="simplify"
       id="path-effect935"
       is_visible="true"
       lpeversion="1"
       steps="1"
       threshold="0.0032025118"
       smooth_angles="0"
       helper_size="0"
       simplify_individual_paths="false"
       simplify_just_coalesce="false"
       step="1" />
    <inkscape:path-effect
       effect="powerstroke"
       id="path-effect930"
       is_visible="true"
       lpeversion="1"
       offset_points="1,0.5"
       sort_points="true"
       interpolator_type="CentripetalCatmullRom"
       interpolator_beta="0.75"
       start_linecap_type="peak"
       linejoin_type="spiro"
       miter_limit="4"
       scale_width="1"
       end_linecap_type="peak" />
    <inkscape:path-effect
       effect="simplify"
       id="path-effect928"
       is_visible="true"
       lpeversion="1"
       steps="1"
       threshold="0.0032025118"
       smooth_angles="0"
       helper_size="0"
       simplify_individual_paths="false"
       simplify_just_coalesce="false"
       step="1" />
    <inkscape:path-effect
       effect="powerstroke"
       id="path-effect923"
       is_visible="true"
       lpeversion="1"
       offset_points="0.73601898,0.79729353"
       sort_points="true"
       interpolator_type="CentripetalCatmullRom"
       interpolator_beta="0.75"
       start_linecap_type="peak"
       linejoin_type="spiro"
       miter_limit="4"
       scale_width="1"
       end_linecap_type="peak" />
    <inkscape:path-effect
       effect="simplify"
       id="path-effect921"
       is_visible="true"
       lpeversion="1"
       steps="1"
       threshold="0.0032025118"
       smooth_angles="0"
       helper_size="0"
       simplify_individual_paths="false"
       simplify_just_coalesce="false"
       step="1" />
    <inkscape:path-effect
       effect="powerstroke"
       id="path-effect916"
       is_visible="true"
       lpeversion="1"
       offset_points="1.2912984,0.79729353"
       sort_points="true"
       interpolator_type="CentripetalCatmullRom"
       interpolator_beta="0.75"
       start_linecap_type="peak"
       linejoin_type="spiro"
       miter_limit="4"
       scale_width="1"
       end_linecap_type="peak" />
    <inkscape:path-effect
       effect="simplify"
       id="path-effect914"
       is_visible="true"
       lpeversion="1"
       steps="1"
       threshold="0.0032025118"
       smooth_angles="0"
       helper_size="0"
       simplify_individual_paths="false"
       simplify_just_coalesce="false"
       step="1" />
    <inkscape:path-effect
       effect="powerstroke"
       id="path-effect909"
       is_visible="true"
       lpeversion="1"
       offset_points="0.58536532,0.79729353"
       sort_points="true"
       interpolator_type="CentripetalCatmullRom"
       interpolator_beta="0.75"
       start_linecap_type="peak"
       linejoin_type="spiro"
       miter_limit="4"
       scale_width="1"
       end_linecap_type="peak" />
    <inkscape:path-effect
       effect="simplify"
       id="path-effect907"
       is_visible="true"
       lpeversion="1"
       steps="1"
       threshold="0.0032025118"
       smooth_angles="0"
       helper_size="0"
       simplify_individual_paths="false"
       simplify_just_coalesce="false"
       step="1" />
    <inkscape:path-effect
       effect="powerstroke"
       id="path-effect902"
       is_visible="true"
       lpeversion="1"
       offset_points="0.70336135,0.79729353"
       sort_points="true"
       interpolator_type="CentripetalCatmullRom"
       interpolator_beta="0.75"
       start_linecap_type="peak"
       linejoin_type="spiro"
       miter_limit="4"
       scale_width="1"
       end_linecap_type="peak" />
    <inkscape:path-effect
       effect="simplify"
       id="path-effect900"
       is_visible="true"
       lpeversion="1"
       steps="1"
       threshold="0.0032025118"
       smooth_angles="0"
       helper_size="0"
       simplify_individual_paths="false"
       simplify_just_coalesce="false"
       step="1" />
    <inkscape:path-effect
       effect="powerstroke"
       id="path-effect895"
       is_visible="true"
       lpeversion="1"
       offset_points="1.5862787,0.79729353"
       sort_points="true"
       interpolator_type="CentripetalCatmullRom"
       interpolator_beta="0.75"
       start_linecap_type="peak"
       linejoin_type="spiro"
       miter_limit="4"
       scale_width="1"
       end_linecap_type="peak" />
    <inkscape:path-effect
       effect="simplify"
       id="path-effect893"
       is_visible="true"
       lpeversion="1"
       steps="1"
       threshold="0.0032025118"
       smooth_angles="0"
       helper_size="0"
       simplify_individual_paths="false"
       simplify_just_coalesce="false"
       step="1" />
    <inkscape:path-effect
       effect="powerstroke"
       id="path-effect888"
       is_visible="true"
       lpeversion="1"
       offset_points="0.5452137,0.79729353"
       sort_points="true"
       interpolator_type="CentripetalCatmullRom"
       interpolator_beta="0.75"
       start_linecap_type="peak"
       linejoin_type="spiro"
       miter_limit="4"
       scale_width="1"
       end_linecap_type="peak" />
    <inkscape:path-effect
       effect="simplify"
       id="path-effect886"
       is_visible="true"
       lpeversion="1"
       steps="1"
       threshold="0.0032025118"
       smooth_angles="0"
       helper_size="0"
       simplify_individual_paths="false"
       simplify_just_coalesce="false"
       step="1" />
    <inkscape:path-effect
       effect="powerstroke"
       id="path-effect881"
       is_visible="true"
       lpeversion="1"
       offset_points="0.58801387,0.44294085"
       sort_points="true"
       interpolator_type="CentripetalCatmullRom"
       interpolator_beta="0.75"
       start_linecap_type="peak"
       linejoin_type="spiro"
       miter_limit="4"
       scale_width="1"
       end_linecap_type="peak" />
    <inkscape:path-effect
       effect="simplify"
       id="path-effect879"
       is_visible="true"
       lpeversion="1"
       steps="1"
       threshold="0.0032025118"
       smooth_angles="0"
       helper_size="0"
       simplify_individual_paths="false"
       simplify_just_coalesce="false"
       step="1" />
    <inkscape:path-effect
       effect="powerstroke"
       id="path-effect874"
       is_visible="true"
       lpeversion="1"
       offset_points="1.6619911,0.26576451"
       sort_points="true"
       interpolator_type="CentripetalCatmullRom"
       interpolator_beta="0.75"
       start_linecap_type="peak"
       linejoin_type="spiro"
       miter_limit="4"
       scale_width="1"
       end_linecap_type="peak" />
    <inkscape:path-effect
       effect="simplify"
       id="path-effect872"
       is_visible="true"
       lpeversion="1"
       steps="1"
       threshold="0.0032025118"
       smooth_angles="0"
       helper_size="0"
       simplify_individual_paths="false"
       simplify_just_coalesce="false"
       step="1" />
    <inkscape:path-effect
       effect="powerstroke"
       id="path-effect867"
       is_visible="true"
       lpeversion="1"
       offset_points="0.82363095,2.6576451"
       sort_points="true"
       interpolator_type="CentripetalCatmullRom"
       interpolator_beta="0.75"
       start_linecap_type="round"
       linejoin_type="spiro"
       miter_limit="4"
       scale_width="1"
       end_linecap_type="round" />
    <inkscape:path-effect
       effect="simplify"
       id="path-effect865"
       is_visible="true"
       lpeversion="1"
       steps="1"
       threshold="0.0032025118"
       smooth_angles="0"
       helper_size="0"
       simplify_individual_paths="false"
       simplify_just_coalesce="false"
       step="1" />
    <inkscape:path-effect
       effect="powerstroke"
       id="path-effect860"
       is_visible="true"
       lpeversion="1"
       offset_points="0.9326861,2.6576451"
       sort_points="true"
       interpolator_type="CentripetalCatmullRom"
       interpolator_beta="0.75"
       start_linecap_type="round"
       linejoin_type="spiro"
       miter_limit="4"
       scale_width="1"
       end_linecap_type="round" />
    <inkscape:path-effect
       effect="simplify"
       id="path-effect858"
       is_visible="true"
       lpeversion="1"
       steps="1"
       threshold="0.0032025118"
       smooth_angles="0"
       helper_size="0"
       simplify_individual_paths="false"
       simplify_just_coalesce="false"
       step="1" />
    <inkscape:path-effect
       effect="powerstroke"
       id="path-effect853"
       is_visible="true"
       lpeversion="1"
       offset_points="0.7016933,2.6576451"
       sort_points="true"
       interpolator_type="CentripetalCatmullRom"
       interpolator_beta="0.75"
       start_linecap_type="round"
       linejoin_type="spiro"
       miter_limit="4"
       scale_width="1"
       end_linecap_type="round" />
    <inkscape:path-effect
       effect="simplify"
       id="path-effect851"
       is_visible="true"
       lpeversion="1"
       steps="1"
       threshold="0.0032025118"
       smooth_angles="0"
       helper_size="0"
       simplify_individual_paths="false"
       simplify_just_coalesce="false"
       step="1" />
    <inkscape:path-effect
       effect="powerstroke"
       id="path-effect846"
       is_visible="true"
       lpeversion="1"
       offset_points="1.1637436,2.6576451"
       sort_points="true"
       interpolator_type="CentripetalCatmullRom"
       interpolator_beta="0.75"
       start_linecap_type="round"
       linejoin_type="spiro"
       miter_limit="4"
       scale_width="1"
       end_linecap_type="round" />
    <inkscape:path-effect
       effect="simplify"
       id="path-effect844"
       is_visible="true"
       lpeversion="1"
       steps="1"
       threshold="0.0032025118"
       smooth_angles="0"
       helper_size="0"
       simplify_individual_paths="false"
       simplify_just_coalesce="false"
       step="1" />
    <inkscape:path-effect
       effect="powerstroke"
       id="path-effect839"
       is_visible="true"
       lpeversion="1"
       offset_points="1.3743382,2.6576451"
       sort_points="true"
       interpolator_type="CentripetalCatmullRom"
       interpolator_beta="0.75"
       start_linecap_type="round"
       linejoin_type="spiro"
       miter_limit="4"
       scale_width="1"
       end_linecap_type="round" />
    <inkscape:path-effect
       effect="simplify"
       id="path-effect837"
       is_visible="true"
       lpeversion="1"
       steps="1"
       threshold="0.0032025118"
       smooth_angles="0"
       helper_size="0"
       simplify_individual_paths="false"
       simplify_just_coalesce="false"
       step="1" />
  </defs>
  <sodipodi:namedview
     id="base"
     pagecolor="#ffffff"
     bordercolor="#666666"
     borderopacity="1.0"
     inkscape:pageopacity="0.0"
     inkscape:pageshadow="2"
     inkscape:zoom="1.4"
     inkscape:cx="81.48655"
     inkscape:cy="71.440406"
     inkscape:document-units="mm"
     inkscape:current-layer="layer1"
     inkscape:document-rotation="0"
     showgrid="false"
     units="px"
     inkscape:window-width="1920"
     inkscape:window-height="1017"
     inkscape:window-x="-8"
     inkscape:window-y="-8"
     inkscape:window-maximized="1"
     inkscape:snap-global="false" />
  <metadata
     id="metadata5">
    <rdf:RDF>
      <cc:Work
         rdf:about="">
        <dc:format>image/svg+xml</dc:format>
        <dc:type
           rdf:resource="http://purl.org/dc/dcmitype/StillImage" />
        <dc:title />
      </cc:Work>
    </rdf:RDF>
  </metadata>
  <g
     inkscape:label="Livello 1"
     inkscape:groupmode="layer"
     id="layer1">
    <rect
       style="fill:#00ffff;stroke:#00ff00;stroke-width:0.264583"
       id="rect839"
       width="34.58482"
       height="34.206848"
       x="2.6458333"
       y="2.8348215" />
    <text
       xml:space="preserve"
       style="font-size:7.76111px;line-height:1.25;font-family:'Times New Roman';-inkscape-font-specification:'Times New Roman, ';stroke-width:0.264583"
       x="2.8348205"
       y="31.750002"
       id="text835"><tspan
         sodipodi:role="line"
         id="tspan833"
         x="2.8348205"
         y="31.750002"
         style="font-size:7.76111px;stroke-width:0.264583">Filter-Sem</tspan></text>
    <path
       d="m 21.52587,28.518704 c 0.02857,-1.045758 -0.07895,-3.063858 -0.258632,-5.450655 -3.25e-4,-0.0043 -6.85e-4,-0.0086 -0.0011,-0.01293 -0.06869,-0.749282 -0.159186,-1.610739 -0.314403,-2.470459 -0.09122,-0.505253 -0.223038,-1.114208 -0.424049,-1.756169 -0.01212,-0.0387 -0.02717,-0.07642 -0.04502,-0.112826 -0.192272,-0.392051 -0.451816,-0.729667 -0.74954,-1.048207 -0.261182,-0.279443 -0.533902,-0.525942 -0.783196,-0.768874 -0.0048,-0.0047 -0.0096,-0.0093 -0.01451,-0.01379 -1.23382,-1.143366 -2.645872,-2.187986 -3.969633,-3.318318 -0.0049,-0.0042 -0.0098,-0.0083 -0.01479,-0.01232 -0.0679,-0.0552 -0.12344,-0.120037 -0.16452,-0.190044 -0.04065,-0.06927 -0.06669,-0.142743 -0.07789,-0.217588 -0.0042,-0.02839 -0.01003,-0.05653 -0.01731,-0.0843 -0.124455,-0.474462 -0.31248,-0.906546 -0.500235,-1.291134 -0.195343,-0.400132 -0.395081,-0.762119 -0.560895,-1.098783 -0.0039,-0.0078 -0.0078,-0.01558 -0.01194,-0.02327 -0.347029,-0.649903 -0.65073,-1.2526108 -0.90079,-1.8623286 -0.271077,-0.6609635 -0.456796,-1.2782636 -0.555704,-1.8834373 -6.02e-4,-0.00368 -0.0012,-0.00736 -0.0019,-0.011026 -0.0358,-0.2012787 -0.05903,-0.3701092 -0.07273,-0.4772866 L 11.19516,5.7252019 10.5054,6.6171581 c 0.01564,0.1223662 0.0423,0.3163891 0.08353,0.5488725 0.12271,0.7476376 0.347741,1.4810228 0.653172,2.2257497 0.278965,0.6801957 0.610037,1.3347627 0.96341,1.9969357 0.185614,0.375988 0.38285,0.734226 0.552603,1.081939 0.161797,0.331417 0.295008,0.645184 0.381455,0.961386 0.04596,0.265192 0.139888,0.514577 0.27164,0.739099 0.138742,0.236437 0.318197,0.443343 0.525729,0.613622 1.375322,1.17436 2.75859,2.199408 3.907444,3.262967 0.302154,0.294152 0.496969,0.465882 0.723795,0.708566 0.211892,0.226707 0.356726,0.421413 0.45714,0.61113 0.164567,0.53718 0.276708,1.0546 0.357222,1.500548 0.142067,0.786876 0.227527,1.589881 0.295099,2.326263 0.181555,2.412648 0.28078,4.30936 0.25424,5.280926 l 0.775225,0.818767 z"
       id="path-1"
       inkscape:path-effect="#path-effect893;#path-effect895"
       inkscape:original-d="m 20.728874,28.496933 c 0.03855,-1.187039 -0.03551,-2.353805 -0.117908,-3.535385 C 20.478485,23.061717 20.338494,20.92241 19.785612,19.120477 19.442691,18.002839 15.382641,15.01656 14.479766,14.20168 13.787979,13.577316 14.107165,13.494577 13.654412,12.510844 12.667243,10.365944 11.619273,9.0426831 11.296258,6.5160597"
       style="fill:#aa4400;fill-rule:nonzero;stroke:none;stroke-width:0.999999px;stroke-linecap:butt;stroke-linejoin:miter;stroke-opacity:1" />
    <path
       d="m 17.58988,15.320076 c -0.100327,-0.284669 -0.34902,-1.001184 -0.483715,-1.765766 -0.03987,-0.226309 -0.07151,-0.464071 -0.0889,-0.70903 -0.01988,-0.28004 -0.02549,-0.628657 0.02047,-1.010726 0.07859,-0.688193 0.371593,-1.488594 0.993667,-2.2550003 0.701778,-0.8710071 1.602347,-1.5915374 2.513627,-2.305413 0.05619,-0.038258 0.131069,-0.076423 0.235828,-0.1195964 0.118628,-0.048889 0.264414,-0.099039 0.418917,-0.158596 0.182441,-0.070327 0.366408,-0.1505156 0.546087,-0.2610851 0.24822,-0.152748 0.429231,-0.3281532 0.565374,-0.5106829 l -0.162419,-1.115784 -1.115785,0.162419 c -0.01911,0.025627 -0.05143,0.062027 -0.122877,0.1059968 -0.06068,0.037338 -0.142603,0.076791 -0.283917,0.1312642 -0.118048,0.045504 -0.26999,0.096764 -0.452966,0.1721725 -0.162231,0.066859 -0.366748,0.1616262 -0.566521,0.3043005 -0.0096,0.00683 -0.01898,0.013873 -0.02823,0.02112 -0.899805,0.704716 -1.951118,1.5337346 -2.787008,2.5712034 -0.808988,0.996679 -1.224477,2.0819995 -1.33751,3.0720195 -0.06072,0.504643 -0.05218,0.959053 -0.02732,1.309285 0.02187,0.308067 0.06121,0.601042 0.109082,0.872787 0.159235,0.903888 0.447132,1.726701 0.550199,2.019144 l 1.016976,0.486944 z"
       id="path-1-7"
       inkscape:path-effect="#path-effect900;#path-effect902"
       inkscape:original-d="M 16.83792,15.585092 C 15.175431,10.913929 16.976317,9.0516591 20.021428,6.6697721 20.534756,6.2682464 21.248834,6.2993422 21.672136,5.7474978"
       style="fill:#aa4400;fill-rule:nonzero;stroke:none;stroke-width:0.999999px;stroke-linecap:butt;stroke-linejoin:miter;stroke-opacity:1" />
    <path
       d="m 19.991926,19.763513 c 0.148729,0.0055 1.458385,0.06786 2.345377,0.04002 0.133601,-0.0042 0.27199,-0.01028 0.413867,-0.01891 0.484402,-0.02946 1.23599,-0.100211 2.040638,-0.329401 0.495012,-0.13851 1.052793,-0.365012 1.58954,-0.722822 0.472817,-0.315193 0.926073,-0.731335 1.283209,-1.264658 0.389795,-0.569051 0.63348,-1.190609 0.786617,-1.81169 0.156977,-0.636655 0.219267,-1.275966 0.244897,-1.844722 0.05688,-1.241138 -0.08255,-2.495717 -0.190578,-3.4494 C 28.322327,8.7449372 28.247317,8.0312316 28.246906,7.1305461 L 27.44925,6.3336159 26.65232,7.1312725 c 4.56e-4,1.0013215 0.08602,1.7972498 0.268719,3.4101385 0.109597,0.967519 0.232345,2.100852 0.182089,3.197528 -0.02311,0.512918 -0.07761,1.038288 -0.200174,1.535376 -0.118905,0.482248 -0.296834,0.917806 -0.555847,1.295068 -0.0019,0.0028 -0.0038,0.0056 -0.0057,0.0084 -0.223207,0.334192 -0.516656,0.609207 -0.844521,0.827771 -0.372509,0.248324 -0.771914,0.412498 -1.13832,0.515029 -0.64834,0.184659 -1.269563,0.245914 -1.704187,0.272349 -0.124542,0.0076 -0.24723,0.01299 -0.36709,0.01675 -0.815365,0.0256 -2.038745,-0.03239 -2.23634,-0.03971 l -0.82625,0.767246 z"
       id="path-1-5"
       inkscape:path-effect="#path-effect907;#path-effect909"
       inkscape:original-d="m 20.021428,18.966765 c 2.712397,0.09605 7.118995,0.458924 7.781908,-4.150235 0.378167,-2.629356 -0.353723,-5.1264975 -0.353723,-7.6856207"
       style="fill:#aa4400;fill-rule:nonzero;stroke:none;stroke-width:0.999999px;stroke-linecap:butt;stroke-linejoin:miter;stroke-opacity:1" />
    <path
       d="m 27.488795,13.8651 c -0.0144,-0.01847 -0.03664,-0.04916 -0.07794,-0.116562 -0.02937,-0.04793 -0.06727,-0.113957 -0.121875,-0.202001 -0.04393,-0.07083 -0.107543,-0.16933 -0.188252,-0.269284 -0.07459,-0.09237 -0.17273,-0.197483 -0.300666,-0.294932 -0.01941,-0.01479 -0.0395,-0.02868 -0.06019,-0.04162 -0.138559,-0.0867 -0.282378,-0.156 -0.428543,-0.21219 -0.09322,-0.03584 -0.191492,-0.06793 -0.296523,-0.09679 -0.211281,-0.05806 -0.416429,-0.0943 -0.631986,-0.129321 -0.21924,-0.03534 -0.423073,-0.05713 -0.627669,-0.08392 -0.184444,-0.02415 -0.350323,-0.05017 -0.503205,-0.0895 0.02958,0.0077 0.05584,0.02056 0.08008,0.04066 0.02406,0.01995 0.05026,0.0507 0.06885,0.09419 -0.04504,-0.103215 -0.111881,-0.246152 -0.213362,-0.386964 -0.05307,-0.07364 -0.118057,-0.150403 -0.19847,-0.223368 -0.08242,-0.07479 -0.178709,-0.14335 -0.290133,-0.198908 C 23.296489,11.449925 23.002355,11.190478 22.813777,10.9173 22.650409,10.683754 22.52324,10.429409 22.415534,10.184802 22.291404,9.9028988 22.132391,9.4820284 22.060628,9.2991144 L 21.02722,8.8480922 20.576198,9.8815006 c 0.05454,0.1390164 0.238324,0.6242364 0.379961,0.9459004 0.126441,0.287154 0.302176,0.648236 0.548184,0.999879 0.358118,0.518805 0.869759,0.942518 1.477417,1.251508 -0.02442,-0.01215 -0.04778,-0.02946 -0.06424,-0.0444 -0.01558,-0.01414 -0.02272,-0.02394 -0.02364,-0.02522 -0.0018,-0.0025 0.01771,0.02869 0.04325,0.08719 0.08582,0.200752 0.220708,0.371093 0.376993,0.5007 0.159985,0.132675 0.345127,0.225276 0.538055,0.275572 0.252388,0.06493 0.496428,0.100811 0.695953,0.126936 0.252087,0.03301 0.391848,0.04662 0.579971,0.07694 0.205742,0.03343 0.340068,0.05869 0.46415,0.09279 0.05868,0.01613 0.106698,0.03215 0.146899,0.04761 0.04228,0.01626 0.07885,0.03302 0.110835,0.0501 0.003,0.0034 0.0063,0.0073 0.01012,0.01202 0.01958,0.02426 0.04289,0.05819 0.0738,0.108018 0.03484,0.05617 0.07479,0.125185 0.117248,0.194497 0.06326,0.103262 0.119425,0.186202 0.180207,0.264146 l 1.119014,0.138428 z"
       id="path-1-53"
       inkscape:path-effect="#path-effect914;#path-effect916"
       inkscape:original-d="m 26.860074,14.355393 c -0.196512,-0.256188 -0.334928,-0.623344 -0.589538,-0.768562 -0.571258,-0.32582 -1.476772,-0.32087 -2.122339,-0.461138 -0.624226,-0.13563 -0.381714,-0.537218 -0.825354,-0.768562 -1.151693,-0.600569 -1.473034,-1.381293 -2.00443,-2.7668235"
       style="fill:#aa4400;fill-rule:nonzero;stroke:none;stroke-width:0.999999px;stroke-linecap:butt;stroke-linejoin:miter;stroke-opacity:1" />
    <path
       d="m 28.405938,11.731174 c 0.164807,-0.05415 0.514201,-0.182453 0.876805,-0.452562 0.120484,-0.08975 0.243015,-0.195533 0.360549,-0.319413 0.105058,-0.11073 0.226026,-0.256875 0.338021,-0.440694 0.193145,-0.311406 0.333067,-0.6666283 0.427654,-1.0673028 0.08017,-0.3395948 0.120532,-0.6797642 0.148899,-1.0093027 0.04083,-0.4868138 0.05026,-0.9584042 0.0774,-1.3934742 0.02842,-0.4556589 0.07381,-0.8452783 0.168321,-1.2096732 0.06451,-0.2431306 0.13866,-0.4049077 0.185614,-0.4966884 L 30.642526,4.2691364 29.569599,4.6158079 c -0.08933,0.1746033 -0.208798,0.4428481 -0.308409,0.8183286 -0.132858,0.5121741 -0.186415,1.0178466 -0.217423,1.5150325 -0.02994,0.480086 -0.03972,0.9398656 -0.07476,1.3577225 -0.0256,0.2973493 -0.0579,0.5489178 -0.111969,0.7779499 -0.06172,0.2614352 -0.142684,0.4510998 -0.234175,0.5986326 -0.04543,0.074509 -0.09251,0.1319955 -0.136352,0.1781992 -0.04876,0.051392 -0.101627,0.097389 -0.156351,0.1381543 -0.165505,0.1232865 -0.336812,0.1884555 -0.421978,0.2164385 l -0.508575,1.006333 z"
       id="path-1-0"
       inkscape:path-effect="#path-effect921;#path-effect923"
       inkscape:original-d="m 28.157059,10.97372 c 2.455315,-0.838709 1.115085,-4.0250989 2.122339,-5.9947842"
       style="fill:#aa4400;fill-rule:nonzero;stroke:none;stroke-width:0.999999px;stroke-linecap:butt;stroke-linejoin:miter;stroke-opacity:1" />
    <path
       d="m 9.5035236,9.2782273 c 0.1115814,0.00339 0.2810346,0.024545 0.4223613,0.109188 0.051973,0.030664 0.099265,0.065457 0.1473771,0.1070303 0.02569,0.022199 0.05354,0.047994 0.08389,0.078354 0.08026,0.080296 0.162097,0.1762401 0.262451,0.3031587 0.141067,0.1790183 0.293613,0.3849383 0.362338,0.4744153 l 1.117966,0.146644 0.146644,-1.1179669 C 11.984688,9.2985124 11.839518,9.1015278 11.671237,8.887975 11.554248,8.7400177 11.428596,8.589223 11.28494,8.4455045 11.228914,8.3894533 11.172702,8.3370389 11.11583,8.2878962 11.010845,8.1971798 10.886108,8.1024655 10.740466,8.0165998 10.259639,7.7286033 9.7680278,7.6909363 9.5519162,7.6843747 l -0.8211226,0.77273 z"
       id="path-1-2"
       inkscape:path-effect="#path-effect1022;#path-effect1024"
       inkscape:original-d="m 9.5277199,8.481301 c 0.9441921,0.03386 1.3084021,0.6297335 1.8865231,1.3834115"
       style="fill:#00ff00;fill-rule:nonzero;stroke:none;stroke-width:0.999999px;stroke-linecap:butt;stroke-linejoin:miter;stroke-opacity:1" />
    <path
       d="m 13.605241,8.0371134 c -0.109872,0.1470572 -0.230448,0.3559305 -0.311851,0.6480257 -0.0555,0.1991469 -0.08198,0.3975192 -0.09443,0.5841028 -0.02126,0.3261419 -0.0029,0.6558393 0.0076,0.8881541 0.0061,0.135048 0.01029,0.24071 0.01154,0.344824 0.0014,0.119828 -0.0012,0.234457 -0.01135,0.344169 -0.008,0.07911 -0.02072,0.140828 -0.03475,0.185462 -0.01803,0.05736 -0.02893,0.06702 -0.03211,0.07115 l 0.146811,1.117945 1.117945,-0.146811 c 0.09651,-0.125684 0.207994,-0.30786 0.288538,-0.564064 0.0555,-0.176555 0.08466,-0.350805 0.100717,-0.510058 0.01767,-0.190209 0.0205,-0.364394 0.01866,-0.517039 -0.0016,-0.132326 -0.0068,-0.260354 -0.01306,-0.397681 -0.01188,-0.2623753 -0.02366,-0.4932221 -0.0095,-0.7111104 0.0075,-0.1129915 0.02157,-0.1971666 0.03935,-0.2609679 0.02239,-0.080351 0.04701,-0.1133824 0.05322,-0.1216873 L 14.721159,7.8756113 Z"
       id="path-1-52"
       inkscape:path-effect="#path-effect1029;#path-effect1031"
       inkscape:original-d="m 14.243951,8.5143209 c -0.584509,0.7817136 0.09267,2.3385831 -0.471632,3.0742481"
       style="fill:#00ff00;fill-rule:nonzero;stroke:none;stroke-width:0.999999px;stroke-linecap:butt;stroke-linejoin:miter;stroke-opacity:1" />
    <path
       d="m 30.692515,10.360944 c 0.0995,-0.139395 0.298852,-0.3727943 0.685861,-0.5994992 0.235764,-0.1402692 0.479596,-0.2525566 0.77403,-0.3982962 0.339148,-0.1678724 0.6376,-0.3304087 0.922652,-0.544088 0.0053,-0.00394 0.01028,-0.00773 0.01507,-0.011357 0.08485,-0.06427 0.149214,-0.1187345 0.188359,-0.1527576 l 0.07874,-1.124791 -1.124791,-0.078735 c -0.02072,0.018013 -0.05657,0.048413 -0.105135,0.085196 -0.0028,0.0021 -0.0057,0.00428 -0.0087,0.00656 -0.168255,0.1261273 -0.364236,0.2377611 -0.673563,0.3908723 -0.241433,0.1195053 -0.576552,0.2752904 -0.877351,0.4542802 -0.602494,0.3529127 -0.962081,0.7506724 -1.173025,1.0461912 l 0.185721,1.1121429 z"
       id="path-1-01"
       inkscape:path-effect="#path-effect1036;#path-effect1038"
       inkscape:original-d="M 30.043583,9.8977325 C 30.782841,8.8747132 31.928446,8.7719512 32.755459,8.0531833"
       style="fill:#00ff00;fill-rule:nonzero;stroke:none;stroke-width:0.999999px;stroke-linecap:butt;stroke-linejoin:miter;stroke-opacity:1" />
    <path
       d="m 15.076319,7.4572183 c 0.07916,-0.012559 0.223743,-0.02775 0.431532,0.00104 0.153729,0.021298 0.317804,0.063079 0.49074,0.1243517 0.338514,0.1189167 0.708448,0.3023625 0.969753,0.4288259 0.04437,0.021472 0.08401,0.040623 0.123434,0.059563 0.480757,0.2309781 0.761447,0.3438391 1.029762,0.4321183 L 19.128075,7.9949393 18.6199,6.9884045 C 18.435646,6.9277823 18.22107,6.8444822 17.782326,6.6336892 17.744894,6.6157048 17.7068,6.5973049 17.662998,6.5761063 17.437707,6.4670721 16.971299,6.2341935 16.529105,6.0788589 16.276239,5.9892634 16.00623,5.9174842 15.726678,5.8787546 15.332641,5.824164 15.026936,5.8505242 14.826473,5.8823261 L 14.16395,6.7946948 Z"
       id="path-1-8"
       inkscape:path-effect="#path-effect1043;#path-effect1045"
       inkscape:original-d="m 14.951396,6.6697722 c 1.207245,-0.1859028 2.285494,0.706453 3.419324,1.0759871"
       style="fill:#00ff00;fill-rule:nonzero;stroke:none;stroke-width:0.999999px;stroke-linecap:butt;stroke-linejoin:miter;stroke-opacity:1" />
    <path
       d="m 18.429648,10.196296 c -0.115661,0.02632 -0.32107,0.08479 -0.553824,0.226938 -0.09107,0.05562 -0.202647,0.133973 -0.319486,0.242105 -0.160699,0.147545 -0.290183,0.306384 -0.402728,0.447465 -0.110941,0.13907 -0.179497,0.226295 -0.255518,0.302929 -0.06984,0.07093 -0.118756,0.104746 -0.141346,0.119449 l -0.23334,1.103134 1.103134,0.23334 c 0.102433,-0.06666 0.244492,-0.171291 0.405725,-0.335052 0.148635,-0.149827 0.278006,-0.316725 0.367884,-0.429392 0.10873,-0.136297 0.17247,-0.210211 0.236976,-0.269441 0.02934,-0.02714 0.05326,-0.04356 0.06979,-0.05365 0.04095,-0.02501 0.06681,-0.03077 0.07651,-0.03297 l 0.600536,-0.954312 z"
       id="path-1-78"
       inkscape:path-effect="#path-effect1050;#path-effect1052"
       inkscape:original-d="m 18.606536,10.97372 c -0.676886,0.159804 -0.848013,0.860187 -1.414893,1.229699"
       style="fill:#00ff00;fill-rule:nonzero;stroke:none;stroke-width:0.999999px;stroke-linecap:butt;stroke-linejoin:miter;stroke-opacity:1" />
    <path
       d="m 20.171234,11.510427 c -0.0091,0.09217 -0.0271,0.305171 0.0032,0.545382 0.02224,0.176057 0.07447,0.40481 0.203567,0.636582 0.09957,0.182343 0.232718,0.332779 0.370868,0.453305 0.130757,0.114075 0.266334,0.201607 0.38219,0.268602 0.147803,0.08596 0.270719,0.148943 0.358717,0.201229 0.100548,0.05974 0.150196,0.09947 0.180682,0.129841 0.02657,0.02614 0.04231,0.04871 0.05212,0.06455 0.01665,0.02691 0.02581,0.05019 0.02933,0.05948 l 1.028108,0.462976 0.462976,-1.028108 c -0.01987,-0.05244 -0.07104,-0.182484 -0.164451,-0.33343 -0.05378,-0.08691 -0.145897,-0.220753 -0.28651,-0.358933 -0.153284,-0.152754 -0.323322,-0.269549 -0.487739,-0.367239 -0.144454,-0.08583 -0.275535,-0.152932 -0.373298,-0.209786 -0.06591,-0.03811 -0.107281,-0.06759 -0.133835,-0.09076 -0.0254,-0.02216 -0.02679,-0.029 -0.02292,-0.0219 -0.0043,-0.0078 -0.0125,-0.02432 -0.01779,-0.06621 -0.0077,-0.06076 -0.004,-0.132168 0.0017,-0.189292 l -0.715313,-0.871597 z"
       id="path-1-85"
       inkscape:path-effect="#path-effect1057;#path-effect1059"
       inkscape:original-d="m 20.964689,11.588569 c -0.134396,1.365431 1.153541,1.009405 1.5328,1.998261"
       style="fill:#00ff00;fill-rule:nonzero;stroke:none;stroke-width:0.999999px;stroke-linecap:butt;stroke-linejoin:miter;stroke-opacity:1" />
    <path
       d="m 22.411863,9.1796391 c 0.0025,0.00163 0.01227,0.0044 0.03983,0.044764 0.02056,0.030111 0.04526,0.076409 0.06773,0.1415586 0.07175,0.2104969 0.08436,0.4485104 0.07256,0.6657483 -0.0011,0.02058 -0.0025,0.04148 -0.0041,0.06271 -0.02347,0.284118 -0.08447,0.480912 -0.128236,0.596087 l 0.462085,1.028509 1.028509,-0.462085 c 0.08835,-0.232487 0.189223,-0.576062 0.227218,-1.036304 0.0029,-0.03756 0.005,-0.07004 0.0068,-0.102431 0.01733,-0.3190958 0.0085,-0.7855228 -0.156434,-1.2694785 C 23.964181,8.664322 23.879234,8.4872984 23.768595,8.3252547 23.607354,8.0890981 23.430175,7.9411967 23.290563,7.8490021 l -1.104669,0.2259687 z"
       id="path-1-4"
       inkscape:path-effect="#path-effect1064;#path-effect1066"
       inkscape:original-d="m 22.851213,8.5143206 c 0.638868,0.422948 0.651977,1.6817504 0.353723,2.4593994"
       style="fill:#00ff00;fill-rule:nonzero;stroke:none;stroke-width:0.999999px;stroke-linecap:butt;stroke-linejoin:miter;stroke-opacity:1" />
    <path
       d="m 25.179907,9.6141182 c 0.02141,-0.00239 0.07463,-0.00684 0.148054,0.00884 0.02942,0.00628 0.06981,0.017429 0.11607,0.037911 0.08952,0.039188 0.18489,0.093657 0.322095,0.184147 0.123337,0.081345 0.269592,0.1856555 0.439321,0.2908195 0.313461,0.196593 0.563032,0.30198 0.762536,0.366639 L 27.972252,9.9898349 27.459613,8.985566 C 27.384155,8.96111 27.254104,8.9112759 27.048974,8.7826341 26.932832,8.7106578 26.798587,8.6157876 26.644053,8.5138682 26.474524,8.4020587 26.292875,8.2917623 26.086479,8.2014307 25.924814,8.1298456 25.776509,8.0881989 25.660931,8.0635207 25.365564,8.0004544 25.128696,8.015344 25.003011,8.0293734 l -0.703924,0.8808202 z"
       id="path-1-26"
       inkscape:path-effect="#path-effect1071;#path-effect1073"
       inkscape:original-d="m 25.091459,8.8217458 c 0.845476,-0.087238 1.288938,0.6506547 2.122339,0.9222737"
       style="fill:#00ff00;fill-rule:nonzero;stroke:none;stroke-width:0.999999px;stroke-linecap:butt;stroke-linejoin:miter;stroke-opacity:1" />
  </g>
</svg>
