<?xml version="1.0" encoding="UTF-8" standalone="no"?>
<svg
   xmlns:dc="http://purl.org/dc/elements/1.1/"
   xmlns:cc="http://creativecommons.org/ns#"
   xmlns:rdf="http://www.w3.org/1999/02/22-rdf-syntax-ns#"
   xmlns:svg="http://www.w3.org/2000/svg"
   xmlns="http://www.w3.org/2000/svg"
   xmlns:sodipodi="http://sodipodi.sourceforge.net/DTD/sodipodi-0.dtd"
   xmlns:inkscape="http://www.inkscape.org/namespaces/inkscape"
   width="150"
   height="150"
   viewBox="0 0 39.6875 39.6875"
   version="1.1"
   id="svg8"
   inkscape:version="1.0.1 (3bc2e813f5, 2020-09-07)"
   sodipodi:docname="palette.svg">
  <defs
     id="defs2">
    <inkscape:path-effect
       effect="powerstroke"
       id="path-effect873"
       is_visible="true"
       lpeversion="1"
       offset_points="2.3785511,0.79729353"
       sort_points="true"
       interpolator_type="CentripetalCatmullRom"
       interpolator_beta="0.75"
       start_linecap_type="peak"
       linejoin_type="spiro"
       miter_limit="4"
       scale_width="1"
       end_linecap_type="peak" />
    <inkscape:path-effect
       effect="simplify"
       id="path-effect871"
       is_visible="true"
       lpeversion="1"
       steps="1"
       threshold="0.0032025118"
       smooth_angles="0"
       helper_size="0"
       simplify_individual_paths="false"
       simplify_just_coalesce="false"
       step="1" />
    <inkscape:path-effect
       effect="powerstroke"
       id="path-effect842"
       is_visible="true"
       lpeversion="1"
       offset_points="3.5439951,0.79729353"
       sort_points="true"
       interpolator_type="CentripetalCatmullRom"
       interpolator_beta="0.75"
       start_linecap_type="peak"
       linejoin_type="spiro"
       miter_limit="4"
       scale_width="1"
       end_linecap_type="peak" />
    <inkscape:path-effect
       effect="simplify"
       id="path-effect840"
       is_visible="true"
       lpeversion="1"
       steps="1"
       threshold="0.0032025118"
       smooth_angles="0"
       helper_size="0"
       simplify_individual_paths="false"
       simplify_just_coalesce="false"
       step="1" />
  </defs>
  <sodipodi:namedview
     id="base"
     pagecolor="#ffffff"
     bordercolor="#666666"
     borderopacity="1.0"
     inkscape:pageopacity="0.0"
     inkscape:pageshadow="2"
     inkscape:zoom="1.4"
     inkscape:cx="253.35158"
     inkscape:cy="268.12134"
     inkscape:document-units="mm"
     inkscape:current-layer="layer1"
     inkscape:document-rotation="0"
     showgrid="false"
     units="px"
     inkscape:window-width="1920"
     inkscape:window-height="1017"
     inkscape:window-x="-8"
     inkscape:window-y="-8"
     inkscape:window-maximized="1" />
  <metadata
     id="metadata5">
    <rdf:RDF>
      <cc:Work
         rdf:about="">
        <dc:format>image/svg+xml</dc:format>
        <dc:type
           rdf:resource="http://purl.org/dc/dcmitype/StillImage" />
        <dc:title />
      </cc:Work>
    </rdf:RDF>
  </metadata>
  <g
     inkscape:label="Livello 1"
     inkscape:groupmode="layer"
     id="layer1">
    <rect
       style="fill:#ffffff;stroke:#00ff00;stroke-width:0.264583"
       id="rect839"
       width="34.58482"
       height="34.206848"
       x="2.6458333"
       y="2.8348215" />
    <path
       style="fill:#000000;stroke:none;stroke-opacity:1;stroke-linejoin:miter;stroke-linecap:butt;stroke-width:1px"
       d="m 346.42857,298.57143 -3.39998,-3.7228"
       id="path846" />
    <path
       style="fill:#000000;stroke:none;stroke-opacity:1;stroke-linejoin:miter;stroke-linecap:butt;stroke-width:1px"
       d="m -80.714286,232.85714 c 6.793143,4.05759 9.276633,12.15326 15,17.14286 6.175427,5.38371 13.469671,9.3385 20,14.28571 4.967119,3.76297 8.862316,8.77592 13.571429,12.85715 9.837577,8.5259 19.907009,17.38425 32.85714271,20.71428 C 22.836389,303.54568 33.819851,302.27998 60,305 c 11.899068,1.23627 22.983662,3.57143 35,3.57143 3.333333,0 6.8,0.93333 10,0 7.60204,-2.21726 11.83816,-12.69789 8.57143,-20 -2.85962,-6.39209 -8.2814,-11.30116 -12.14286,-17.14286 -9.299239,-14.06808 -21.776358,-39.18066 -34.999999,-50 -1.958876,-1.60272 -3.472257,-3.8256 -5.714285,-5 C 51.066879,211.37517 12.534355,212.39436 10,212.14286 c -20.072164,-1.9919 -39.992245,-5.29801 -60,-7.85715 -1.180856,-0.15104 -2.487659,-0.49262 -3.571429,0 -7.845047,3.56593 -13.859216,8.43272 -17.857142,16.42858 -1.664431,3.32886 0.326306,2.31694 -1.428572,7.14285 -0.406837,1.1188 -1.659359,1.76927 -2.142857,2.85715 -0.493073,1.10941 -0.171345,2.48554 -0.714286,3.57142 -2.142857,-0.71428 -5,-1.42857 -5,-1.42857 z"
       id="path866" />
    <path
       style="fill:#000000;stroke:none;stroke-opacity:1;stroke-linejoin:miter;stroke-linecap:butt;stroke-width:1px"
       d="m -73.571429,230.71429 h 1.428572"
       id="path868" />
    <path
       style="fill:#ffb380;stroke:#000000;stroke-width:0.264583px;stroke-linecap:butt;stroke-linejoin:miter;stroke-opacity:1"
       d="m 10.118411,34.69568 c 0,0 3.107443,0.03745 3.969663,-1.022583 1.195919,-1.470294 -0.668267,-4.031217 0.267269,-5.679477 0.438498,-0.772561 1.333949,-1.512814 2.221356,-1.472328 2.275674,0.103821 5.329008,4.278658 5.329008,4.278658 0,0 4.010318,1.1909 6.080381,1.336346 1.005058,0.07062 2.149402,0.287871 3.013872,-0.229642 1.605336,-0.961031 2.367455,-2.977964 3.019491,-4.731684 1.17446,-3.158836 1.866124,-6.661429 1.450184,-10.005766 C 35.094939,14.15649 34.061241,10.974631 31.995132,8.750212 30.50076,7.141338 28.200698,6.459054 26.107613,5.795266 23.835787,5.074794 21.398683,4.414019 19.036875,4.733607 c -2.778919,0.37603 -5.541621,1.610949 -7.688313,3.41525 -1.6219834,1.363281 -2.5471474,3.407482 -3.5413234,5.278572 -1.08288,2.038036 -2.605876,6.414468 -2.605876,6.414468 -0.663812,1.634 -0.507029,3.66011 0.133633,6.080384 l 1.202714,4.543582 1.34157,2.233475 2.115153,1.967513"
       id="path877"
       sodipodi:nodetypes="cssscsssssssssssccc" />
    <ellipse
       style="fill:#ffaaaa;stroke:#ff0000;stroke-width:0.529168"
       id="path848"
       cx="16.79196"
       cy="19.052704"
       rx="3.05178"
       ry="3.3925986" />
    <ellipse
       style="fill:#ffffff;stroke:#ff0000;stroke-width:0.529168"
       id="circle850"
       cx="23.450384"
       cy="16.893776"
       rx="3.05178"
       ry="3.3925986" />
    <ellipse
       style="fill:#ff0000;stroke:#ff0000;stroke-width:0.529168"
       id="circle852"
       cx="10.780878"
       cy="22.650917"
       rx="3.05178"
       ry="3.3925986" />
    <ellipse
       style="fill:#000000;stroke:#ff0000;stroke-width:0.529168"
       id="circle854"
       cx="21.415869"
       cy="24.295815"
       rx="3.05178"
       ry="3.3925986" />
    <ellipse
       style="fill:#008000;stroke:#ff0000;stroke-width:0.529168"
       id="circle856"
       cx="13.185308"
       cy="13.295563"
       rx="3.05178"
       ry="3.3925986" />
    <ellipse
       style="fill:#0000ff;stroke:#ff0000;stroke-width:0.529168"
       id="circle858"
       cx="19.658781"
       cy="9.6973572"
       rx="3.05178"
       ry="3.3925986" />
    <ellipse
       style="fill:#ffff00;stroke:#ff0000;stroke-width:0.529168"
       id="circle860"
       cx="26.96456"
       cy="10.828224"
       rx="3.05178"
       ry="3.3925986" />
    <ellipse
       style="fill:#00ffff;stroke:#ff0000;stroke-width:0.529168"
       id="circle862"
       cx="30.663687"
       cy="18.230255"
       rx="3.05178"
       ry="3.3925986" />
    <ellipse
       style="fill:#ff00ff;stroke:#ff0000;stroke-width:0.529168"
       id="circle864"
       cx="27.51943"
       cy="26.660347"
       rx="3.05178"
       ry="3.3925986" />
  </g>
</svg>
